<svg width="45" height="47" viewBox="0 0 45 47" fill="none" xmlns="http://www.w3.org/2000/svg">
<path d="M9.9648 41.3352C10.2839 41.5433 10.3736 41.9702 10.16 42.2849C9.94899 42.6024 9.51644 42.6883 9.19471 42.4801C8.44574 41.9909 7.8101 41.3846 7.31168 40.7055C6.80266 40.0108 6.43348 39.2353 6.22777 38.426C6.19344 38.2881 6.05899 37.9472 6.18553 37.6141C6.30415 37.2967 6.57853 37.1379 6.8422 36.961C7.73892 36.3547 8.80441 35.9696 9.93317 35.8421C11.0488 35.7172 12.2303 35.8447 13.3749 36.2636C14.1871 36.5629 14.9177 36.9818 15.5454 37.4919C15.4715 37.3097 15.3925 37.1302 15.3133 36.9532C14.2636 34.6269 12.7076 32.7092 10.9564 30.8564C9.70624 32.0014 8.06056 32.7507 6.17753 32.9277C4.80612 33.0552 3.25794 32.9277 1.99995 32.4229C0.821043 31.9494 0.061467 31.1869 0.00350327 30.2475C-0.0492503 29.3889 0.496707 28.6082 1.44348 28.0149C1.99734 27.6663 2.70147 27.3748 3.50319 27.1719C2.99948 26.5213 2.62499 25.8629 2.40607 25.2515C2.03419 24.2106 2.09225 23.2661 2.66984 22.6208C3.25003 21.9754 4.1942 21.8037 5.28611 22.0431C5.92697 22.1836 6.6364 22.4699 7.34853 22.8862C7.45934 22.0716 7.66505 21.3457 7.94724 20.7629C8.36657 19.8938 9.08921 19.0819 10.1336 19.0793C11.0408 19.0793 11.8557 19.7194 12.4518 20.7759C12.9846 21.7205 13.3591 23.0345 13.4514 24.4917H13.454V24.5437V24.5463H13.4566V24.5515C13.5674 26.5578 12.9819 28.3897 11.8901 29.8312C12.4017 30.3699 12.8843 30.9007 13.3406 31.4341C13.4646 30.7055 13.7573 29.9821 14.232 29.329C14.7173 28.6576 15.337 28.1373 16.0201 27.7859C16.7322 27.4164 17.5155 27.2316 18.2856 27.2472C18.5573 27.2525 18.7129 27.2394 18.9476 27.4034C19.2193 27.596 19.2667 27.8302 19.3432 28.0487C19.5859 28.7461 19.6544 29.5059 19.5357 30.2605C19.4197 31.0099 19.1217 31.7567 18.6338 32.4306C18.1115 33.1514 17.4338 33.6979 16.69 34.0491C16.3208 34.2234 15.9357 34.3509 15.5428 34.4264C15.9279 35.0561 16.2734 35.7066 16.5846 36.3936C17.7635 39.0061 18.3806 42.087 18.3806 46.3129C18.3806 46.6928 18.0694 46.9998 17.6844 46.9998C17.2993 46.9998 16.9855 46.6928 16.9855 46.3129C16.9855 45.0534 16.9301 43.9033 16.8193 42.8443C16.3393 43.1123 15.8224 43.3231 15.2791 43.4714C14.3824 43.7161 13.4171 43.7863 12.4387 43.664C12.0563 43.6172 11.7873 43.2737 11.8348 42.899C11.8849 42.5217 12.2304 42.2563 12.6128 42.3031C13.404 42.402 14.1846 42.3448 14.91 42.147C15.4981 41.9856 16.0493 41.7332 16.5372 41.3975C16.3341 40.6195 15.9385 39.8805 15.3794 39.243C14.7465 38.517 13.8999 37.9237 12.8898 37.5542C11.9535 37.2134 10.9908 37.1067 10.0863 37.2081C9.16848 37.3122 8.30879 37.6271 7.58875 38.1241C7.75232 38.7511 8.04232 39.3549 8.44063 39.8987C8.84386 40.4479 9.35818 40.9397 9.9648 41.3352ZM21.2315 14.6817C21.5875 14.8249 21.759 15.2256 21.6138 15.5769C21.4688 15.9282 21.0627 16.0973 20.7066 15.9569C19.8126 15.5978 19.0503 14.9811 18.515 14.1978C17.9954 13.438 17.6947 12.5246 17.6947 11.5436C17.6947 10.227 18.2355 9.03778 19.1084 8.17645C19.9814 7.31521 21.1866 6.78178 22.5211 6.78178C23.8529 6.78178 25.0582 7.31521 25.9339 8.17645C26.8069 9.03778 27.3474 10.2269 27.3474 11.5436C27.3474 12.5247 27.0441 13.438 26.5246 14.1978C25.9918 14.981 25.2296 15.5978 24.3329 15.9569C23.9769 16.0974 23.5707 15.9282 23.4257 15.5769C23.2807 15.2256 23.4546 14.8249 23.8108 14.6817C24.449 14.4241 24.9923 13.987 25.3694 13.4327C25.736 12.8941 25.9496 12.2435 25.9496 11.5436C25.9496 10.6094 25.5672 9.76104 24.9448 9.14958C24.3249 8.53803 23.4678 8.15818 22.521 8.15818C21.5715 8.15818 20.7144 8.53813 20.0946 9.14958C19.4722 9.76104 19.0898 10.6093 19.0898 11.5436C19.0898 12.2435 19.3034 12.8941 19.67 13.4327C20.0499 13.9869 20.5906 14.4241 21.2315 14.6817ZM24.4306 1.14288C25.0451 1.97291 25.4091 3.03206 25.599 3.70594C25.6781 3.98179 26.1344 3.76065 26.2952 3.67216C26.8754 3.35215 27.8012 2.9566 28.7453 2.8447C29.5022 2.75364 30.2381 2.86554 30.7761 3.36776C31.3511 3.89853 31.4381 4.76243 31.33 5.48845C31.1849 6.47472 30.668 7.52074 30.3252 8.11926C30.072 8.55896 30.4465 8.51481 30.6046 8.55639C31.2614 8.73338 32.3321 9.11589 33.1154 9.70395C33.7405 10.1724 34.1967 10.7734 34.2178 11.5255C34.2389 12.2983 33.6798 12.967 33.0864 13.4068C32.2794 14 31.169 14.3904 30.4991 14.5699C30.0191 14.7 30.2855 14.9056 30.3857 15.0747C30.7207 15.655 31.2007 16.6751 31.3299 17.6352C31.4354 18.4028 31.3273 19.1444 30.8077 19.6909C30.2671 20.2555 29.3968 20.3414 28.6609 20.2347C27.6587 20.0916 26.5985 19.5842 25.992 19.2459C25.5753 19.0143 25.6307 19.225 25.5516 19.5295C25.3696 20.1748 24.9766 21.2313 24.3832 21.9989C24.0588 22.4179 23.6711 22.7614 23.2175 22.9434V46.3131C23.2175 46.6929 22.9063 47 22.5212 47C22.1362 47 21.8223 46.6929 21.8223 46.3131V22.946C21.3555 22.7613 20.9599 22.4074 20.6328 21.9728C20.0289 21.1714 19.6464 20.0759 19.4565 19.4149C19.3352 18.9934 18.9607 19.3005 18.7128 19.4331C18.1379 19.7375 17.1647 20.1487 16.2468 20.245C15.5058 20.3256 14.7884 20.2085 14.2636 19.7193C13.7018 19.199 13.6122 18.3481 13.7097 17.6377C13.8416 16.6775 14.319 15.6574 14.6565 15.0746C14.9703 14.5256 14.8965 14.6609 14.3111 14.497C13.6702 14.32 12.6443 13.935 11.89 13.3547C11.286 12.8916 10.8429 12.2983 10.8219 11.5618C10.8008 10.7864 11.3546 10.1177 11.9533 9.67797C12.7578 9.08468 13.8707 8.6996 14.5432 8.51738C14.9943 8.39511 14.6698 8.05417 14.5222 7.78613C14.2136 7.22148 13.7995 6.25872 13.6993 5.35314C13.6202 4.62198 13.7363 3.91423 14.2321 3.39631C14.7727 2.83167 15.651 2.75098 16.3842 2.85507C17.3837 2.99819 18.4492 3.49774 19.0479 3.83868C19.2457 3.94792 19.4172 3.7814 19.4857 3.54989C19.6677 2.90712 20.0632 1.8533 20.6593 1.08569C21.134 0.471569 21.7433 0.0239677 22.5002 0.000559504C23.3018 -0.0201866 23.9849 0.539223 24.4306 1.14288ZM23.3071 1.95473C23.0671 1.62949 22.7981 1.39266 22.5212 1.37448C22.2627 1.39266 22.0016 1.61646 21.7643 1.92095C21.2975 2.52204 20.9757 3.38337 20.828 3.9168C20.6328 4.60894 20.4799 5.04094 20.0632 5.28815C19.6043 5.55877 19.119 5.4599 18.3568 5.02791C17.8584 4.74425 16.9801 4.32796 16.1889 4.21605C15.7907 4.15877 15.4372 4.17961 15.2341 4.35403C15.0732 4.53615 15.0442 4.85358 15.0838 5.20755C15.1603 5.90227 15.4979 6.67511 15.7484 7.13308C15.8275 7.27619 15.8591 7.33605 15.8909 7.39324C16.0597 7.68983 16.1968 7.93456 16.2707 8.19728C16.4948 9.00399 16.2284 9.48538 14.9098 9.84182C14.348 9.99274 13.4276 10.3076 12.7867 10.7812C12.4676 11.0154 12.2328 11.2782 12.2144 11.5436C12.2302 11.7934 12.4492 12.0459 12.7472 12.2748C13.3247 12.7197 14.1608 13.0294 14.6882 13.1752C15.453 13.3859 15.9198 13.555 16.1678 13.9948C16.4393 14.4658 16.318 14.9628 15.8645 15.7512C15.5876 16.2352 15.192 17.0706 15.0892 17.82C15.0364 18.1973 15.0601 18.5382 15.2342 18.7334C15.4188 18.8895 15.7406 18.9181 16.0993 18.879C16.8034 18.8036 17.5841 18.4705 18.0536 18.2233C18.1169 18.1895 18.2065 18.1401 18.2882 18.0932C18.5915 17.9292 18.8395 17.7939 19.1032 17.721C19.9287 17.4894 20.4245 17.7444 20.7964 19.0429C20.9573 19.605 21.2764 20.5262 21.7511 21.1559C21.9145 21.3719 22.2232 21.7101 22.5212 21.7101C22.806 21.7101 23.1172 21.3719 23.2754 21.1663C23.7422 20.5627 24.0613 19.6988 24.2091 19.1627C24.4016 18.4783 24.5731 18.0464 24.9897 17.807C25.4487 17.5468 25.9366 17.6379 26.6802 18.0516C27.1892 18.3378 28.0701 18.7619 28.8561 18.8739C29.2491 18.9312 29.6024 18.9103 29.8081 18.7334C29.9796 18.5382 30.0033 18.1974 29.9506 17.8174C29.8478 17.0681 29.4548 16.2353 29.1753 15.7513C28.8113 15.1217 28.6214 14.6975 28.7532 14.237C28.893 13.7322 29.3097 13.4694 30.1353 13.2456C30.6917 13.0972 31.6096 12.7771 32.253 12.3036C32.5722 12.0668 32.8095 11.804 32.828 11.5438C32.8095 11.2836 32.5828 11.026 32.2742 10.797C31.6649 10.339 30.784 10.0268 30.2382 9.87845C29.5234 9.68586 29.0857 9.52191 28.843 9.10561C28.582 8.65278 28.6875 8.17929 29.1146 7.44024C29.4047 6.93801 29.8346 6.06888 29.9507 5.29081C30.0087 4.90306 29.9876 4.55699 29.8082 4.35403C29.6183 4.19008 29.2834 4.1641 28.9089 4.21091C28.173 4.29684 27.3634 4.65328 26.8913 4.9161C26.5828 5.08785 26.2426 5.29861 25.9023 5.38968C25.1137 5.60825 24.6232 5.36627 24.2804 4.15106C24.1194 3.57586 23.795 2.6131 23.3071 1.95473ZM34.6556 29.5216C35.2938 30.1956 36.0825 30.7342 36.9844 31.0933C37.343 31.2338 37.5145 31.6345 37.3721 31.9858C37.2296 32.3371 36.8235 32.5089 36.4674 32.3683C35.5549 32.0066 34.7373 31.4914 34.0437 30.8565C32.2925 32.7092 30.7365 34.627 29.6868 36.9533C29.6077 37.1302 29.5285 37.3097 29.4547 37.492C30.0824 36.9819 30.813 36.563 31.6252 36.2637C32.7698 35.8448 33.9513 35.7172 35.0669 35.8422C36.2326 35.9748 37.3271 36.3808 38.2423 37.0183C38.4401 37.1562 38.6959 37.2941 38.8146 37.6116C38.9412 37.9473 38.8067 38.2959 38.7723 38.426C38.5007 39.4981 37.939 40.5103 37.1425 41.3586C36.375 42.1756 35.3966 42.8392 34.252 43.2581C33.0203 43.7083 31.7491 43.8227 30.5623 43.6484C29.7104 43.5209 28.9034 43.2503 28.1808 42.8444C28.0701 43.906 28.0146 45.0535 28.0146 46.313C28.0146 46.6928 27.7008 46.9999 27.3157 46.9999C26.9306 46.9999 26.6195 46.6928 26.6195 46.313C26.6195 42.0871 27.2366 39.0062 28.4155 36.3937C28.7267 35.7068 29.0723 35.0562 29.4573 34.4265C29.0643 34.351 28.6793 34.2261 28.31 34.0492C27.5662 33.6979 26.8884 33.1514 26.3662 32.4307C25.8783 31.7568 25.5803 31.0099 25.4643 30.2606C25.3483 29.5189 25.4115 28.7722 25.6463 28.0852C25.7255 27.851 25.8071 27.5907 26.0524 27.4034C26.216 27.2811 26.4427 27.2525 26.7144 27.2472C27.4845 27.2316 28.2678 27.4163 28.9799 27.7859C29.663 28.1372 30.2827 28.6576 30.768 29.329C31.2428 29.9821 31.5355 30.7055 31.6594 31.4341C32.1157 30.9007 32.5983 30.3698 33.11 29.8312C32.9702 29.6464 32.8409 29.4565 32.717 29.2614C31.7464 27.7079 31.4063 25.9541 31.575 24.1561C31.6991 22.8342 32.0576 21.6476 32.5482 20.7759C33.0652 19.8626 33.925 18.9701 35.0669 19.0924C35.9003 19.1809 36.5861 19.8001 37.0529 20.763C37.335 21.3459 37.5408 22.0718 37.6489 22.8862C38.3636 22.4699 39.073 22.1837 39.7139 22.0432C40.8057 21.8038 41.7499 21.9755 42.3301 22.6209C42.9077 23.2662 42.9657 24.2107 42.5938 25.2516C42.3749 25.863 42.0004 26.5214 41.4967 27.172C42.2984 27.3749 43.0027 27.6664 43.5565 28.015C44.5033 28.6083 45.0492 29.389 44.9965 30.2476C44.9411 31.1141 44.2923 31.8297 43.2637 32.3085C42.3723 32.7222 41.1591 32.9668 39.822 32.9694C39.4369 32.9694 39.1258 32.6623 39.1258 32.2851C39.1258 31.9051 39.437 31.598 39.822 31.598C40.9535 31.5955 41.9556 31.3977 42.6756 31.0646C43.2347 30.8044 43.5855 30.4895 43.604 30.1668C43.6251 29.8467 43.3245 29.4954 42.8102 29.1729C42.1535 28.7591 41.1988 28.4417 40.0911 28.2986C39.7087 28.2491 39.4423 27.9056 39.4897 27.5283C39.5109 27.3748 39.582 27.2395 39.6849 27.138V27.1354C40.4656 26.3521 41.0194 25.5221 41.2805 24.7961C41.4836 24.2263 41.502 23.7683 41.2884 23.5288C41.0748 23.2895 40.608 23.2531 40.0119 23.3831C39.2497 23.5497 38.3477 23.9894 37.4616 24.6608C37.1583 24.8923 36.7231 24.8351 36.4884 24.5358C36.3777 24.3927 36.3459 24.2523 36.3433 24.0805C36.3301 23.0006 36.1271 22.0431 35.7922 21.3535C35.539 20.8279 35.233 20.4948 34.9219 20.4584C34.9035 20.4584 34.8823 20.4557 34.8638 20.4532C34.5025 20.4532 34.1095 20.8279 33.7641 21.442C33.3262 22.22 33.0151 23.3311 32.9385 24.5853C32.8542 25.9775 33.1548 27.3462 33.9012 28.5406C34.1202 28.8893 34.3734 29.2198 34.6556 29.5216ZM10.4237 29.4331C10.4369 29.4175 10.45 29.4046 10.4659 29.3889C11.563 28.1529 12.1697 26.485 12.0642 24.6296C12.0615 24.6009 12.0588 24.5723 12.0588 24.5463C11.9797 23.3077 11.6712 22.2122 11.236 21.442C10.8905 20.8279 10.4975 20.4532 10.1363 20.4532C10.1179 20.4557 10.0967 20.4584 10.0783 20.4584C9.76709 20.4948 9.46118 20.8279 9.20802 21.3535C8.87838 22.0353 8.67527 22.9798 8.65685 24.0441C8.65155 24.2314 8.63573 24.372 8.5118 24.5358C8.27706 24.8351 7.84192 24.8923 7.53861 24.6608C6.6525 23.9894 5.75047 23.5497 4.98829 23.3831C4.39228 23.2531 3.9255 23.2895 3.71188 23.5288C3.49826 23.7682 3.51668 24.2262 3.71979 24.7961C3.97556 25.5091 4.5136 26.3236 5.27579 27.0964C5.40241 27.2239 5.48419 27.3384 5.51052 27.5284C5.55798 27.9057 5.2916 28.2492 4.90921 28.2987C3.80148 28.4418 2.8468 28.7592 2.19012 29.173C1.6758 29.4956 1.37519 29.8468 1.39631 30.1669C1.41734 30.5286 1.84727 30.8773 2.52507 31.1479C3.68025 31.6111 4.62441 31.5772 5.83235 31.5772C7.7098 31.4524 9.31594 30.6587 10.4237 29.4331ZM28.9088 32.8133C29.3228 33.0084 29.7634 33.1176 30.2011 33.1359C30.3252 32.7222 30.3621 32.272 30.3092 31.8218C30.2407 31.2389 30.0165 30.6509 29.6341 30.1253C29.2781 29.6334 28.8297 29.2561 28.3365 29.0011C27.8909 28.7695 27.4109 28.642 26.9335 28.6212C26.7989 29.0739 26.7673 29.5632 26.8438 30.0575C26.9282 30.6013 27.1445 31.1452 27.5006 31.6344C27.8829 32.1627 28.3735 32.5608 28.9088 32.8133ZM14.7991 33.1359C15.2369 33.1177 15.6774 33.0084 16.0914 32.8133C16.6267 32.5608 17.1173 32.1627 17.4997 31.6345C17.8558 31.1453 18.072 30.6015 18.1565 30.0576C18.233 29.5632 18.2013 29.074 18.0668 28.6213C17.5894 28.6421 17.1094 28.7696 16.6638 29.0012C16.1706 29.2536 15.7222 29.6335 15.3635 30.1253C14.9838 30.651 14.7596 31.239 14.691 31.8219C14.6381 32.272 14.675 32.7222 14.7991 33.1359ZM28.4631 41.3976C29.1303 41.8583 29.9188 42.1627 30.7628 42.2875C31.7254 42.4281 32.7593 42.3344 33.7668 41.9675C34.7083 41.6214 35.5048 41.0854 36.1219 40.4296C36.7496 39.7609 37.1927 38.9646 37.4116 38.1242C36.6916 37.6271 35.8318 37.3123 34.9141 37.2082C34.0094 37.1068 33.0468 37.2134 32.1106 37.5543C31.1005 37.9238 30.2539 38.517 29.6209 39.2431C29.0618 39.8806 28.6662 40.6196 28.4631 41.3976Z" fill="url(#paint0_linear)"/>
<defs>
<linearGradient id="paint0_linear" x1="5.19231" y1="5.73171" x2="45.1152" y2="7.4799" gradientUnits="userSpaceOnUse">
<stop stop-color="#82358C"/>
<stop offset="1" stop-color="#82236D"/>
</linearGradient>
</defs>
</svg>
