<svg width="30" height="45" viewBox="0 0 30 45" fill="none" xmlns="http://www.w3.org/2000/svg">
<path d="M17.1493 14.7065C17.5203 14.7065 17.8209 14.4107 17.8209 14.046C17.8209 13.6812 17.5203 13.3855 17.1493 13.3855H12.806V9.0704H17.1493C17.5203 9.0704 17.8209 8.77465 17.8209 8.4099C17.8209 8.04516 17.5203 7.7494 17.1493 7.7494H12.806V4.18298C12.806 1.87655 10.8977 0 8.55224 0C6.2068 0 4.29851 1.87655 4.29851 4.18298V11.2573C4.29851 11.622 4.59917 11.9178 4.97018 11.9178C5.34118 11.9178 5.64185 11.622 5.64185 11.2573V4.18298C5.64185 2.6049 6.94747 1.32091 8.55233 1.32091C10.1572 1.32091 11.4628 2.6049 11.4628 4.18298V7.74949H10.6568V4.18298C10.6568 3.04189 9.71271 2.11351 8.55233 2.11351C7.39194 2.11351 6.44785 3.04189 6.44785 4.18298V32.1621C4.71581 32.9585 3.58215 34.6826 3.58215 36.59C3.58215 39.285 5.81175 41.4775 8.55233 41.4775C11.2929 41.4775 13.5225 39.285 13.5225 36.59C13.5225 34.6826 12.3888 32.9585 10.6568 32.1621V25.9785H11.4628V29.6856C11.4628 29.9337 11.6041 30.1608 11.8287 30.2737C14.2544 31.4931 15.7613 33.9134 15.7613 36.59C15.7613 40.4989 12.5274 43.6791 8.55233 43.6791C4.57728 43.6791 1.34334 40.4989 1.34334 36.59C1.34334 33.9134 2.85024 31.4931 5.27594 30.2737C5.50054 30.1608 5.64185 29.9336 5.64185 29.6856V14.3982C5.64185 14.0335 5.34118 13.7377 4.97018 13.7377C4.59917 13.7377 4.29851 14.0335 4.29851 14.3982V29.2924C1.6365 30.7919 0 33.5516 0 36.59C0 41.2273 3.83652 45 8.55224 45C13.268 45 17.1045 41.2273 17.1045 36.59C17.1045 33.5516 15.468 30.7919 12.806 29.2924V25.9784H17.1493C17.5203 25.9784 17.8209 25.6827 17.8209 25.318C17.8209 24.9532 17.5203 24.6575 17.1493 24.6575H12.806V20.3424H17.1493C17.5203 20.3424 17.8209 20.0466 17.8209 19.6819C17.8209 19.3171 17.5203 19.0214 17.1493 19.0214H12.806V14.7063H17.1493V14.7065ZM12.1791 36.59C12.1791 38.5566 10.5521 40.1565 8.55224 40.1565C6.55233 40.1565 4.9254 38.5566 4.9254 36.59C4.9254 35.0814 5.89711 33.73 7.34332 33.2271C7.61163 33.1338 7.7911 32.8843 7.7911 32.6044V4.18298C7.7911 3.77024 8.13252 3.43441 8.55233 3.43441C8.97213 3.43441 9.31355 3.77016 9.31355 4.18298V32.6045C9.31355 32.8844 9.49302 33.134 9.76133 33.2272C11.2074 33.73 12.1791 35.0815 12.1791 36.59ZM11.4627 24.6575H10.6567V20.3425H11.4627V24.6575ZM11.4627 19.0216H10.6567V14.7065H11.4627V19.0216ZM11.4627 13.3855H10.6567V9.0704H11.4627V13.3855Z" fill="url(#paint0_linear)"/>
<path d="M22.1642 7.74949C21.0038 7.74949 20.0597 8.67788 20.0597 9.81896C20.0597 10.96 21.0038 11.8884 22.1642 11.8884C23.3246 11.8884 24.2687 10.96 24.2687 9.81896C24.2687 8.67788 23.3246 7.74949 22.1642 7.74949ZM22.1642 10.5675C21.7445 10.5675 21.403 10.2318 21.403 9.81896C21.403 9.40614 21.7444 9.0704 22.1642 9.0704C22.584 9.0704 22.9254 9.40614 22.9254 9.81896C22.9254 10.2318 22.5839 10.5675 22.1642 10.5675Z" fill="url(#paint1_linear)"/>
<path d="M29.3283 20.4305H27.8955C25.8956 20.4305 24.2687 18.8306 24.2687 16.864C24.2687 14.8974 25.8957 13.2975 27.8955 13.2975H29.3283C29.6993 13.2975 30 13.0017 30 12.637C30 12.2723 29.6993 11.9765 29.3283 11.9765H27.8955C25.155 11.9765 22.9253 14.169 22.9253 16.864C22.9253 19.559 25.155 21.7515 27.8955 21.7515H29.3283C29.6993 21.7515 30 21.4558 30 21.091C30 20.7263 29.6993 20.4305 29.3283 20.4305Z" fill="url(#paint2_linear)"/>
<defs>
<linearGradient id="paint0_linear" x1="3.46154" y1="5.48781" x2="30.1031" y2="6.30012" gradientUnits="userSpaceOnUse">
<stop stop-color="#82358C"/>
<stop offset="1" stop-color="#82236D"/>
</linearGradient>
<linearGradient id="paint1_linear" x1="3.46154" y1="5.48781" x2="30.1031" y2="6.30012" gradientUnits="userSpaceOnUse">
<stop stop-color="#82358C"/>
<stop offset="1" stop-color="#82236D"/>
</linearGradient>
<linearGradient id="paint2_linear" x1="3.46154" y1="5.48781" x2="30.1031" y2="6.30012" gradientUnits="userSpaceOnUse">
<stop stop-color="#82358C"/>
<stop offset="1" stop-color="#82236D"/>
</linearGradient>
</defs>
</svg>
