<svg width="32" height="45" viewBox="0 0 32 45" fill="none" xmlns="http://www.w3.org/2000/svg">
<path d="M30.0607 32.2389C29.4756 29.2678 26.7264 28.7621 26.7177 28.758V28.7581C26.6881 28.7493 26.9699 28.821 20.0126 27.0726V26.8333H25.1341C26.1898 26.8333 27.0486 25.9626 27.0486 24.8924V14.9901C27.1347 14.6219 27.1349 14.2391 27.0486 13.8702V10.2562C27.0486 9.89198 26.7574 9.59693 26.3983 9.59693C26.039 9.59693 25.748 9.89198 25.748 10.2562V12.1482C25.4047 11.9404 25.0126 11.7915 24.59 11.7177C24.4374 11.0307 23.8746 10.4875 23.1609 10.3925C22.4168 10.2934 21.853 9.85365 21.4849 9.08566C21.3127 8.7261 20.9753 8.48994 20.5825 8.45373C20.1895 8.41769 19.8173 8.58794 19.5843 8.90944C18.4665 10.4518 15.3589 13.9111 9.99272 13.9109C9.58447 13.9109 9.30765 13.8913 9.21125 13.8869C8.22518 13.8267 7.39143 14.6254 7.39143 15.6271V17.1419C7.39143 19.5631 8.38218 21.9103 10.1095 23.5816C10.6824 24.1359 11.3143 24.5983 11.9882 24.967V25.5149H6.89007C6.55152 25.5149 6.27609 25.2357 6.27609 24.8926V10.0786C6.27609 5.27594 10.1386 1.31857 14.8044 1.31857C14.8195 1.31857 14.8346 1.31866 14.8496 1.31874C16.5212 1.3278 18.4513 1.80918 19.7666 2.54473C20.6001 3.01117 21.115 2.64045 21.9382 2.64045C23.9473 2.64045 25.5575 4.73489 25.7504 6.61865C25.7516 6.64625 25.7545 6.75673 25.7549 7.18001C25.7553 7.81643 26.4643 7.8653 26.4057 7.83876C26.7649 7.83849 27.0557 7.543 27.0555 7.17896C27.0554 7.06189 27.0563 6.60283 27.0455 6.49631C26.784 3.87391 24.5775 1.32191 21.9383 1.32191C20.9075 1.32191 20.7468 1.58681 20.3949 1.39029C18.9035 0.556115 16.7295 0.0104003 14.8566 0.000204983C9.45789 -0.0352151 4.97541 4.5243 4.97541 10.0785V24.8925C4.97541 25.9627 5.8343 26.8334 6.88998 26.8334H11.9882V27.0727L5.30936 28.7508C5.30051 28.753 5.29184 28.7556 5.28309 28.7581L4.79517 28.904C4.78051 28.9084 4.76612 28.9132 4.75182 28.9186C3.88105 29.248 2.3579 30.1173 1.93995 32.2393C-0.0393049 42.3188 0.0440095 41.8884 0.0392412 41.9229C-0.199171 43.6325 0.64498 45 2.67564 45H9.70792C10.0672 45 10.3582 44.7049 10.3582 44.3407C10.3582 43.9765 10.0671 43.6815 9.70792 43.6815H7.26078V37.4632C7.26078 37.099 6.96966 36.8039 6.61048 36.8039C6.2513 36.8039 5.96018 37.099 5.96018 37.4632V43.6815H2.67564C1.81181 43.6815 1.31019 43.3995 1.30187 42.4796C1.29823 42.0308 1.2808 42.4682 3.21549 32.4971C3.5067 31.0185 4.56577 30.4009 5.18625 30.1617L5.63724 30.0269L9.47263 29.0632C13.7392 34.1587 13.4865 33.8887 13.7331 34.1326C15.1572 35.5408 17.1891 35.4414 18.5265 33.8492L22.5426 29.0668L26.3634 30.0268C26.4739 30.0783 28.3758 30.4175 28.7853 32.4968C30.7033 42.3816 30.7026 42.0287 30.699 42.479C30.6924 43.3801 30.2116 43.6815 29.3252 43.6815H26.064V37.4632C26.064 37.099 25.773 36.8039 25.4137 36.8039C25.0544 36.8039 24.7634 37.099 24.7634 37.4632V43.6815H12.7427C12.3834 43.6815 12.0924 43.9766 12.0924 44.3407C12.0924 44.705 12.3835 45 12.7427 45H29.3253C30.9319 45 31.9849 44.1038 31.9997 42.4896C32.0051 41.7357 31.9608 42.0959 30.0607 32.2389ZM24.6326 13.0778C25.1756 13.2416 25.5945 13.6044 25.7481 14.0525V14.8078C25.5945 15.256 25.1756 15.6188 24.6326 15.7824V13.0778ZM24.6326 17.2567V17.135C25.039 17.0589 25.4164 16.913 25.7481 16.7121V24.8925C25.7481 25.2357 25.4727 25.5148 25.1342 25.5148H20.0126V25.0053C22.7699 23.5439 24.6326 20.6179 24.6326 17.2567ZM11.0076 22.6276C9.53609 21.2037 8.6922 19.2043 8.6922 17.1417C8.73087 15.7063 8.59848 15.5324 8.82441 15.3167C8.90443 15.2402 9.01202 15.1958 9.13313 15.2029C13.7959 15.4875 17.8065 13.4094 20.4543 9.92994C21.1682 11.2008 22.2153 11.5965 22.9915 11.7C23.1856 11.7258 23.332 11.8937 23.332 12.0907C23.332 13.9145 23.332 15.4461 23.332 17.2568C23.332 23.8166 15.5856 27.0572 11.0076 22.6276ZM17.536 32.9944C16.6299 34.0734 15.3616 34.0705 14.4577 32.9889L13.1008 31.3653H18.904L17.536 32.9944ZM20.0115 30.0467H11.999L10.8814 28.7093L12.7951 28.2284C13.0854 28.1555 13.289 27.885 13.289 27.582L13.289 25.5424C15.0784 26.147 16.9681 26.1405 18.712 25.5612C18.7242 27.6684 18.6841 27.6201 18.7482 27.806C18.8192 28.0115 18.9881 28.1736 19.2057 28.2283L21.132 28.7123L20.0115 30.0467Z" fill="url(#paint0_linear)"/>
<defs>
<linearGradient id="paint0_linear" x1="3.69231" y1="5.48781" x2="32.1063" y2="6.41192" gradientUnits="userSpaceOnUse">
<stop stop-color="#82358C"/>
<stop offset="1" stop-color="#82236D"/>
</linearGradient>
</defs>
</svg>
